<svg height="512" viewBox="0 0 512 512" width="512" xmlns="http://www.w3.org/2000/svg"><path fill="#fff" d="M445 167.364c4.143 0 7.5-3.357 7.5-7.5V107.5c0-12.406-10.094-22.5-22.5-22.5h-7.5V65c0-12.406-10.094-22.5-22.5-22.5h-7.5v-20C392.5 10.094 382.406 0 370 0H82C69.593 0 59.5 10.094 59.5 22.5v41.365c0 4.143 3.358 7.5 7.5 7.5s7.5-3.357 7.5-7.5V22.5c0-4.136 3.364-7.5 7.5-7.5h288c4.136 0 7.5 3.364 7.5 7.5v382c0 4.136-3.364 7.5-7.5 7.5H82c-4.136 0-7.5-3.364-7.5-7.5V95.865c0-4.143-3.358-7.5-7.5-7.5s-7.5 3.357-7.5 7.5V404.5c0 12.406 10.093 22.5 22.5 22.5h7.5v20c0 12.406 10.093 22.5 22.5 22.5h7.5v20c0 12.406 10.093 22.5 22.5 22.5h288c12.406 0 22.5-10.094 22.5-22.5V191.679c0-4.143-3.357-7.5-7.5-7.5s-7.5 3.357-7.5 7.5V489.5c0 4.136-3.364 7.5-7.5 7.5H142c-4.136 0-7.5-3.364-7.5-7.5v-20h185.367c4.143 0 7.5-3.357 7.5-7.5s-3.357-7.5-7.5-7.5H112c-4.135 0-7.5-3.364-7.5-7.5v-20H370c12.406 0 22.5-10.094 22.5-22.5v-347h7.5c4.136 0 7.5 3.364 7.5 7.5v382c0 4.136-3.364 7.5-7.5 7.5h-48.319c-4.143 0-7.5 3.357-7.5 7.5s3.357 7.5 7.5 7.5H400c12.406 0 22.5-10.094 22.5-22.5V100h7.5c4.136 0 7.5 3.364 7.5 7.5v52.364c0 4.143 3.357 7.5 7.5 7.5z"/><path fill="#fff" d="M110 124v52c0 6.341 5.159 11.5 11.5 11.5h52c6.341 0 11.5-5.159 11.5-11.5v-38.676l15.37-13.12a7.499 7.499 0 0 0 .834-10.573 7.5 7.5 0 0 0-10.574-.835l-6.924 5.91c-1.919-3.684-5.773-6.206-10.207-6.206h-52c-6.34 0-11.499 5.159-11.499 11.5zm15 3.5h45v2.907l-14.882 12.704-7.106-7.698a7.5 7.5 0 0 0-11.022 10.174l12 13a7.5 7.5 0 0 0 10.381.617l10.63-9.075V172.5h-45v-45zm209.5-3h-120c-4.142 0-7.5 3.357-7.5 7.5s3.358 7.5 7.5 7.5h120c4.143 0 7.5-3.357 7.5-7.5s-3.357-7.5-7.5-7.5zm0 32h-120c-4.142 0-7.5 3.357-7.5 7.5s3.358 7.5 7.5 7.5h120c4.143 0 7.5-3.357 7.5-7.5s-3.357-7.5-7.5-7.5zM110 273c0 6.341 5.159 11.5 11.5 11.5h52c6.341 0 11.5-5.159 11.5-11.5v-52c0-6.341-5.159-11.5-11.5-11.5h-52c-6.341 0-11.5 5.159-11.5 11.5zm15-48.5h45v45h-45zm209.5-3h-120c-4.142 0-7.5 3.357-7.5 7.5s3.358 7.5 7.5 7.5h120c4.143 0 7.5-3.357 7.5-7.5s-3.357-7.5-7.5-7.5zm0 32h-120c-4.142 0-7.5 3.357-7.5 7.5s3.358 7.5 7.5 7.5h120c4.143 0 7.5-3.357 7.5-7.5s-3.357-7.5-7.5-7.5zM110 370c0 6.341 5.159 11.5 11.5 11.5h52c6.341 0 11.5-5.159 11.5-11.5v-52c0-6.341-5.159-11.5-11.5-11.5h-52c-6.341 0-11.5 5.159-11.5 11.5zm15-48.5h45v45h-45zm209.5-3h-120c-4.142 0-7.5 3.357-7.5 7.5s3.358 7.5 7.5 7.5h120c4.143 0 7.5-3.357 7.5-7.5s-3.357-7.5-7.5-7.5zm0 32h-120c-4.142 0-7.5 3.357-7.5 7.5s3.358 7.5 7.5 7.5h120c4.143 0 7.5-3.357 7.5-7.5s-3.357-7.5-7.5-7.5zm-38-315h-138c-13.785 0-25 11.215-25 25s11.215 25 25 25h138c13.785 0 25-11.215 25-25s-11.215-25-25-25zm0 35h-138c-5.514 0-10-4.486-10-10s4.486-10 10-10h138c5.514 0 10 4.486 10 10s-4.486 10-10 10z"/></svg>